<svg xmlns="http://www.w3.org/2000/svg" id="Layer_2" viewBox="0 0 100 100" width="100" height="100"><metadata><rdf:RDF xmlns:rdf="http://www.w3.org/1999/02/22-rdf-syntax-ns#" xmlns:dc="http://purl.org/dc/elements/1.1/"><rdf:Description><dc:creator>RealFaviconGenerator</dc:creator><dc:source>https://realfavicongenerator.net</dc:source></rdf:Description></rdf:RDF></metadata><defs><style>.cls-1{fill:#fff;}.cls-2{fill:#12151b;}.cls-3{fill:#ef1111;}</style></defs><g id="Layer_1-2"><path id="redcircle" class="cls-3" d="M50,0C22.39,0,0,22.39,0,50s22.39,50,50,50,50-22.39,50-50S77.61,0,50,0ZM84.15,84.15c-4.44,4.44-9.6,7.92-15.35,10.35-5.95,2.52-12.28,3.8-18.8,3.8s-12.84-1.28-18.8-3.8c-5.75-2.43-10.92-5.91-15.35-10.35-4.44-4.44-7.92-9.6-10.35-15.35-2.52-5.95-3.8-12.28-3.8-18.8s1.28-12.84,3.8-18.8c2.43-5.75,5.91-10.92,10.35-15.35,4.44-4.44,9.6-7.92,15.35-10.35,5.95-2.52,12.28-3.8,18.8-3.8s12.84,1.28,18.8,3.8c5.75,2.43,10.92,5.91,15.35,10.35,4.44,4.44,7.92,9.6,10.35,15.35,2.52,5.95,3.8,12.28,3.8,18.8s-1.28,12.84-3.8,18.8c-2.43,5.75-5.91,10.92-10.35,15.35Z"></path><path id="circlefill" class="cls-1" d="M50,17.48c-17.93,0-32.52,14.59-32.52,32.52s14.59,32.52,32.52,32.52,32.52-14.59,32.52-32.52-14.59-32.52-32.52-32.52Z"></path><path id="donut" class="cls-2" d="M50,3.46C24.34,3.46,3.46,24.34,3.46,50s20.88,46.54,46.54,46.54,46.54-20.88,46.54-46.54S75.66,3.46,50,3.46ZM50,79.86c-16.49,0-29.86-13.37-29.86-29.86s13.37-29.86,29.86-29.86,29.86,13.37,29.86,29.86-13.37,29.86-29.86,29.86Z"></path><g id="kicker"><path id="kicker2" class="cls-3" d="M46.31,77.59c.47,0,.94.06,1.41.06.55,0,.87-.33.86-.88,0-.34-.08-.68-.17-1.01-.34-1.21-.27-2.43-.11-3.65.02-.16.11-.18.23-.21.7-.22,1.39-.45,2.09-.67.16-.05.19-.14.18-.3-.13-1.54-.26-3.08-.37-4.63-.08-1.2-.13-2.4-.19-3.6-.05-1.07-.1-2.13-.16-3.2,0,0-.02-1.05-.04-2.13.45-1.94.9-3.88,1.36-5.82.1-.42.21-.85.33-1.27.03-.12.1-.23.17-.33,2.45-3.34,5.24-6.36,8.3-9.14,1.4-1.27,2.8-2.52,4.2-3.78.15-.13.2-.23.13-.42-.2-.54-.37-1.08-.57-1.62-.05-.13,0-.26.1-.35.33-.27.65-.55.99-.81.25-.19.54-.26.86-.21.18.03.37.04.55.03.45-.03.72-.31.77-.75.05-.52.32-.88.79-1.08.24-.1.5-.16.73-.27.28-.13.56-.27.8-.45.21-.15.25-.4.15-.64-.04-.1-.09-.19-.14-.27,5.12,5.05,8.29,12.07,8.29,19.83,0,5.79-1.76,11.17-4.79,15.62-5.01,7.39-13.47,12.24-23.07,12.24-1.32,0-2.61-.09-3.88-.27.06,0,.12,0,.18,0Z"></path><path id="kicker1" class="cls-2" d="M22.14,50c0,12.87,8.73,23.71,20.6,26.9.05-.16.16-.28.34-.32.74-.18,1.27-.66,1.84-1.12,1.06-.86,1.22-1.98.99-3.25-.11,0-.21-.03-.32-.02-.23,0-.33-.07-.34-.33-.06-1.23-.14-2.45-.21-3.68-.07-1.15-.09-2.3-.41-3.42-.39-1.39-.46-2.81-.25-4.23.14-.92.08-1.8-.12-2.7-.1-.44-.3-1.68-.43-2.56-.23.14-.47.27-.72.38-.09.04-.19.07-.34.12.07-.5.13-.94.19-1.38.13-.95.22-1.91.03-2.86-.04-.2-.13-.39-.22-.62-.21.12-.4.19-.54.31-.2.17-.4.19-.63.1-.2-.08-.4-.16-.6-.24-.15.51-.28,1.01-.44,1.49-.14.42-.24.49-.69.38-1.63-.39-3.23-.87-4.74-1.63-.19-.09-.37-.26-.49-.44-.89-1.35-1.46-2.85-1.99-4.37-.72-2.08,1.87-6.35,1.92-6.43.12-.18.23-.42.22-.62-.03-.36-.1-.73-.24-1.06-.16-.38-.42-.73-.64-1.09-.43-.72-.67-1.48-.61-2.33.09-1.2.77-2.02,1.94-2.32.65-.17,1.32-.14,1.98-.08.51.05,1.02.17,1.53.03.04-.01.12.04.16.08.2.27.17.69-.06.93-.07.07-.16.12-.22.16.15.35.28.62.38.9.05.15.05.34,0,.48-.09.23-.07.42.06.62.15.22.29.44.41.66.12.21.07.35-.16.44-.05.02-.11.04-.14.05,0,.21-.07.41-.01.57.07.17-.04.29-.02.42.02.22.12.42.18.65.22-.09.42-.17.61-.26,1.1-.5,2.24-.74,3.45-.69.65.03,1.31-.05,1.96-.11,1.36-.11,4.32-1.59,5.5-2.1.06-.03.14-.09.18-.07.22.08.23-.11.26-.23.03-.1.04-.2.05-.3.02-.35.18-.6.5-.76.12-.06.23-.18.31-.31.18-.3.37-.4.68-.24.31.16.61.35.9.55.18.12.23.3.14.51-.02.05,0,.12,0,.19.01.25.04.5.03.76,0,.08-.08.17-.14.23-.36.33-.74.59-1.27.56-.32-.02-.46.31-.65.51-.06.06,0,.24.04.36.1.36.23.72.32,1.09.04.17.1.38-.15.5-1.58.75-3.15,1.52-4.73,2.26-.81.38-1.65.64-2.57.42-.01,0-.02.01-.06.03.41.3.8.59,1.2.88.33.24.4.39.29.77-.2.71-.42,1.42-.65,2.12-.14.41-.34.78-.61,1.14-.55.77-1.1,1.53-1.76,2.2-.01,0-.01.03-.01.04.02,0,.04,0,.07,0,.06.4.12.8.19,1.23.34-.36.66-.7.99-1.05,0,.42,0,.82,0,1.22.03,1.12.3,2.5.6,3.69.12.47.27.93.43,1.38.11.29.21.58.32.88.43-.24.83-.46,1.24-.69-1.22-2.31-1.86-4.71-1.75-7.27.18-.03.34-.04.47-.09.49-.2.68-.7.46-1.19-.06-.13-.08-.24.04-.31.07-.04.2,0,.27.04.12.07.24.17.31.29.17.29.35.59.47.91.46,1.22.62,2.51.7,3.81.02.3.04.59.05.9.41-.09.79-.18,1.19-.28-.1-.47-.2-.92-.3-1.36-.26-1.17-.55-2.33-1.07-3.41-.31-.64-.66-1.26-1.47-1.42.27-.86.54-1.71.57-2.6.49-.24,1-.45,1.47-.73.37-.22,1.14.05,1.44.28.08-.16.2-.31.34-.42,1.64-1.29,6.98-5.82,7.26-6.03,1.38-1.22,2.76-2.44,4.15-3.66.3-.26.6-.51.92-.78.22.36.42.7.62,1.04.03,0,.05,0,.06-.01,1.34-1.18,2.95-2.04,4.07-3.48.27-.35.66-.45,1.09-.34.1.03.19.06.28.1-4.94-4.44-11.46-7.14-18.63-7.14-9.98,0-18.73,5.25-23.65,13.13-2.67,4.27-4.21,9.32-4.21,14.73Z"></path></g><path id="text" class="cls-1" d="M22.67,31.76l-7.25-5.23-1.04,1.45-1.94-1.4,3.46-4.8,1.94,1.4-1.04,1.45,7.25,5.23-1.38,1.91ZM28.14,25.49l-1.93-1.78-.83.78,1.66,2.04-1.73,1.61-6.85-9.12,2.89-2.7,8.57,7.51-1.77,1.66ZM21.51,19.4l-.12.11,2.5,3.22.68-.63-3.05-2.7ZM30.98,23.12l-5.85-9.71,4.3-2.59,1.24,2.05-2.28,1.37,1.03,1.71,2.25-1.35,1.18,1.96-2.25,1.35,1.1,1.84,2.27-1.37,1.3,2.16-4.29,2.58ZM40.37,18.59l-2.96-4.38-.14.05c.11.23.2.52.29.79l1.35,4.04-2.29.76-3.59-10.76,2.29-.76,1.31,3.92c.08.23.12.4.17.59l.14-.05-.07-4.98,2.34-.78.02.07-.03,5.35,3.7,5.22.02.07-2.56.85ZM49.68,17.16l-1.03-6.92h-.16s-.58,6.98-.58,6.98l-3.32.12-1.42-11.29,2.38-.09.79,7.69h.16s.75-7.75.75-7.75l2.36-.09,1.33,7.67h.16s.21-7.73.21-7.73l2.25-.08-.56,11.37-3.32.12ZM57.73,18.28c-1.41-.34-2.01-.72-2.23-1.5-.22-.76-.21-1.47.63-4.93.84-3.46,1.16-4.07,1.7-4.66.54-.58,1.25-.65,2.66-.31,1.4.34,2,.73,2.21,1.49.21.78.22,1.46-.62,4.92s-1.16,4.09-1.7,4.67c-.54.59-1.25.65-2.65.31ZM59.82,12.69c.59-2.43.64-2.83.62-3.13-.03-.21-.14-.33-.5-.41-.36-.09-.53-.04-.63.14-.17.25-.31.63-.9,3.07-.57,2.36-.62,2.76-.59,3.08.01.2.14.31.5.4.36.09.51.05.63-.12.16-.27.3-.65.87-3.01ZM66.41,21.5l.34-6.64-.08-.04-2.74,5.43-1.91-.96,5.1-10.12,2.06,1.04-.36,4.23.08.04,1.77-3.52,1.93.97-5.1,10.12-1.1-.55ZM68.78,22.89l7.29-8.69,2.42,2.03c1.1.92,1.48,1.55,1.35,2.31-.13.77-.44,1.37-2.65,4-2.21,2.64-2.76,3.06-3.48,3.31-.73.27-1.4,0-2.51-.93l-2.42-2.03ZM72.76,22.97c.29.24.44.27.62.17.24-.15.51-.4,2-2.17,1.5-1.79,1.72-2.12,1.82-2.38.05-.17,0-.32-.29-.56l-.57-.48-4.15,4.95.57.48ZM76.06,30.34c-.88-1.16-1.1-1.83-.78-2.57.31-.73.77-1.27,3.61-3.42s3.47-2.42,4.26-2.53c.78-.1,1.38.29,2.26,1.45.87,1.15,1.08,1.83.77,2.56-.33.74-.75,1.26-3.6,3.41s-3.49,2.43-4.28,2.54c-.8.11-1.38-.29-2.25-1.44ZM81.22,27.34c2-1.51,2.29-1.79,2.46-2.03.11-.18.1-.34-.13-.64-.23-.3-.39-.36-.58-.29-.29.09-.64.3-2.64,1.8-1.94,1.46-2.23,1.74-2.41,2.01-.12.17-.09.33.14.63.23.3.37.36.57.3.29-.11.64-.32,2.58-1.78ZM25.85,71.97l1.53,1.76-5.92,5.15c-1.44,1.2-1.92,1.38-2.51,1.47-.73.12-1.32-.26-2.26-1.34-.95-1.1-1.25-1.73-1.03-2.44.17-.58.38-1.07,1.79-2.3l5.92-5.15,1.58,1.82-5.92,5.15c-.8.7-.8.84-.42,1.28.38.44.51.45,1.31-.25l5.92-5.15ZM25.36,86.48l1.46-6.48-.07-.05-3.62,4.89-1.72-1.27,6.74-9.12,1.85,1.37-1.07,4.11.07.05,2.34-3.17,1.73,1.28-6.74,9.12-.99-.73ZM29.26,88.81l5.07-10.14,2.16,1.08-5.07,10.14-2.16-1.08ZM35.43,91.55l2-11.24,2.44.74-1.71,7.82.16.05,2.89-7.47,2.39.73-4.65,10.44-3.51-1.06ZM43.46,93.57l1.04-11.29,5,.46-.22,2.39-2.65-.24-.18,1.98,2.61.24-.21,2.28-2.61-.24-.2,2.13,2.64.24-.23,2.51-4.98-.46ZM55.59,93.63c-.16-.36-.23-.58-.81-3.15-.22-1.03-.37-1.17-.67-1.13l-.36.04.48,4.39-2.34.26-1.23-11.27,3.41-.37c2.03-.22,2.64.59,2.88,2.76.25,2.32-.06,2.52-.66,2.96v.09c.14.09.28.17.42.42.2.34.44.99.75,2.28.42,1.81.47,2.06.61,2.37v.07s-2.48.27-2.48.27ZM54.18,87.22c.43-.05.56-.36.45-1.41-.1-.89-.32-1.1-.78-1.05l-.6.07.27,2.46.66-.07ZM61.75,84.22c-.03-.15-.06-.22-.14-.47-.22-.67-.4-.85-.94-.67s-.57.42-.35,1.09c.2.63.42.75.84.84,1.02.22,1.63.16,2.3.35.77.24,1.22.64,1.8,2.44.83,2.56.45,3.56-1.73,4.26-1.78.58-2.78.26-3.33-1.44-.18-.54-.35-1.18-.38-1.55l1.87-.61c0,.12.05.25.1.41.27.83.47,1.06,1.04.87.57-.19.64-.41.34-1.32-.18-.56-.41-.72-.88-.86-.85-.24-1.82-.17-2.57-.5-.75-.32-1.07-1.16-1.53-2.59-.66-2.02-.34-2.9,1.78-3.59,1.92-.62,2.79-.29,3.38,1.53.19.58.26.89.26,1.19l-1.85.6ZM69.09,89.65l-5.2-10.07,2.14-1.11,5.2,10.07-2.14,1.11ZM75.25,86.04l-5.33-7.18-1.43,1.06-1.43-1.92,4.75-3.53,1.43,1.92-1.43,1.06,5.33,7.18-1.89,1.4ZM82.13,80.06l-3.1-2.74-6.71-3.18-.06-.05,1.61-1.82c2.55,1.39,2.87,1.58,3.28,1.83l.1-.11c-.3-.39-.52-.68-2.19-3.06l1.56-1.76.06.05,4.01,6.19,3.12,2.76-1.68,1.9Z"></path><path id="dash" class="cls-1" d="M17.48,50.41H6.13v-.81h11.35v.81ZM93.87,49.59h-11.35v.81h11.35v-.81Z"></path></g></svg>